<svg xmlns="http://www.w3.org/2000/svg" viewBox="0 0 240 240" width="240" height="240"><rect x="0" y="0" width="240" height="240" rx="0" fill="#17141F"></rect><text x="8" y="14" font-size="10" fill="#F3EEF8" font-weight="400">▶</text><text x="20" y="14" font-size="11" fill="#F3EEF8" font-weight="500">124</text><circle cx="54" cy="10" r="2.5" fill="#5A5468"></circle><circle cx="62" cy="10" r="2.5" fill="#F3EEF8"></circle><circle cx="70" cy="10" r="2.5" fill="#5A5468"></circle><circle cx="78" cy="10" r="2.5" fill="#5A5468"></circle><rect x="171.2" y="3" width="60.800000000000004" height="14" rx="4" fill="#FFC145"></rect><text x="201.6" y="13.5" font-size="9" fill="#17141F" text-anchor="middle" font-weight="500">PROPHET</text><text x="10" y="39" font-size="9" fill="#9A93A8" font-weight="500">Osc</text><rect x="56" y="24" width="56" height="22" rx="5" fill="#1D1926"></rect><text x="84" y="39" font-size="9" fill="#C9C2D6" text-anchor="middle" font-weight="400">Osc A</text><rect x="116" y="24" width="56" height="22" rx="5" fill="#1D1926"></rect><text x="144" y="39" font-size="9" fill="#C9C2D6" text-anchor="middle" font-weight="400">Osc B</text><rect x="176" y="24" width="56" height="22" rx="5" fill="#1D1926"></rect><text x="204" y="39" font-size="9" fill="#C9C2D6" text-anchor="middle" font-weight="400">B waves</text><text x="10" y="65" font-size="9" fill="#9A93A8" font-weight="500">Mixer</text><rect x="56" y="50" width="56" height="22" rx="5" fill="#1D1926"></rect><text x="84" y="65" font-size="9" fill="#C9C2D6" text-anchor="middle" font-weight="400">Mixer</text><text x="10" y="91" font-size="9" fill="#FFC145" font-weight="500">Filter</text><rect x="56" y="76" width="56" height="22" rx="5" fill="#262033" stroke="#FFC145" stroke-width="1"></rect><text x="84" y="91" font-size="9" fill="#F3EEF8" text-anchor="middle" font-weight="500">Filter</text><rect x="116" y="76" width="56" height="22" rx="5" fill="#1D1926"></rect><text x="144" y="91" font-size="9" fill="#C9C2D6" text-anchor="middle" font-weight="400">Flt env</text><text x="10" y="117" font-size="9" fill="#9A93A8" font-weight="500">Amp</text><rect x="56" y="102" width="56" height="22" rx="5" fill="#1D1926"></rect><text x="84" y="117" font-size="9" fill="#C9C2D6" text-anchor="middle" font-weight="400">Amp env</text><text x="10" y="143" font-size="9" fill="#9A93A8" font-weight="500">Mod</text><rect x="56" y="128" width="56" height="22" rx="5" fill="#1D1926"></rect><text x="84" y="143" font-size="9" fill="#C9C2D6" text-anchor="middle" font-weight="400">Env mod</text><rect x="116" y="128" width="56" height="22" rx="5" fill="#1D1926" stroke="#9A93A8" stroke-width="1" stroke-dasharray="3 2"></rect><text x="144" y="143" font-size="9" fill="#C9C2D6" text-anchor="middle" font-weight="400">Poly mod</text><rect x="176" y="128" width="56" height="22" rx="5" fill="#1D1926"></rect><text x="204" y="143" font-size="9" fill="#C9C2D6" text-anchor="middle" font-weight="400">Mod flt</text><text x="10" y="169" font-size="9" fill="#9A93A8" font-weight="500">LFO</text><rect x="56" y="154" width="56" height="22" rx="5" fill="#1D1926"></rect><text x="84" y="169" font-size="9" fill="#C9C2D6" text-anchor="middle" font-weight="400">LFO</text><text x="10" y="195" font-size="9" fill="#9A93A8" font-weight="500">Wheel</text><rect x="56" y="180" width="56" height="22" rx="5" fill="#1D1926"></rect><text x="84" y="195" font-size="9" fill="#C9C2D6" text-anchor="middle" font-weight="400">Wheel</text><rect x="116" y="180" width="56" height="22" rx="5" fill="#1D1926"></rect><text x="144" y="195" font-size="9" fill="#C9C2D6" text-anchor="middle" font-weight="400">Wheel 2</text><text x="10" y="221" font-size="9" fill="#9A93A8" font-weight="500">Voice</text><rect x="56" y="206" width="56" height="22" rx="5" fill="#1D1926"></rect><text x="84" y="221" font-size="9" fill="#C9C2D6" text-anchor="middle" font-weight="400">Unison</text><rect x="116" y="206" width="56" height="22" rx="5" fill="#1D1926"></rect><text x="144" y="221" font-size="9" fill="#C9C2D6" text-anchor="middle" font-weight="400">Bend</text><rect x="176" y="206" width="56" height="22" rx="5" fill="#1D1926"></rect><text x="204" y="221" font-size="9" fill="#C9C2D6" text-anchor="middle" font-weight="400">Store</text><text x="232" y="234" font-size="8.5" fill="#9A93A8" text-anchor="end" font-weight="400">16 pages</text></svg>