<svg xmlns="http://www.w3.org/2000/svg" viewBox="0 0 240 240" width="240" height="240"><rect x="0" y="0" width="240" height="240" rx="0" fill="#17141F"></rect><text x="8" y="14" font-size="10" fill="#F3EEF8" font-weight="400">▶</text><text x="20" y="14" font-size="11" fill="#F3EEF8" font-weight="500">124</text><circle cx="54" cy="10" r="2.5" fill="#5A5468"></circle><circle cx="62" cy="10" r="2.5" fill="#F3EEF8"></circle><circle cx="70" cy="10" r="2.5" fill="#5A5468"></circle><circle cx="78" cy="10" r="2.5" fill="#5A5468"></circle><rect x="96" y="8" width="4" height="4" rx="2" fill="#2E2939"></rect><rect x="105" y="8" width="12" height="4" rx="2" fill="#FFC145"></rect><rect x="122" y="8" width="4" height="4" rx="2" fill="#2E2939"></rect><rect x="184" y="3" width="48" height="14" rx="4" fill="#FFC145"></rect><text x="208" y="13.5" font-size="9" fill="#17141F" text-anchor="middle" font-weight="500">SCALE</text><text x="12" y="40" font-size="11" fill="#C9C2D6" font-weight="400">Root</text><text x="228" y="40" font-size="11" fill="#9A93A8" text-anchor="end" font-weight="400">D#</text><rect x="0" y="48" width="240" height="20" rx="0" fill="#262033"></rect><rect x="0" y="48" width="3" height="20" rx="0" fill="#FFC145"></rect><text x="12" y="62" font-size="11" fill="#F3EEF8" font-weight="500">Scale</text><text x="216" y="62" font-size="11" fill="#FFC145" text-anchor="end" font-weight="500">Minor</text><text x="228" y="62" font-size="12" fill="#FFC145" text-anchor="end" font-weight="500">›</text><text x="12" y="84" font-size="11" fill="#C9C2D6" font-weight="400">Quantise</text><text x="228" y="84" font-size="11" fill="#9A93A8" text-anchor="end" font-weight="400">On</text><text x="12" y="106" font-size="11" fill="#C9C2D6" font-weight="400">Transpose</text><text x="228" y="106" font-size="11" fill="#9A93A8" text-anchor="end" font-weight="400">0 st</text><text x="12" y="128" font-size="11" fill="#C9C2D6" font-weight="400">Favourite</text><text x="228" y="128" font-size="11" fill="#9A93A8" text-anchor="end" font-weight="400">★</text><rect x="4" y="142" width="232" height="78" rx="6" fill="#1D1926"></rect><rect x="20" y="150" width="27" height="62" rx="4" fill="#221E2C" stroke="#2E2939" stroke-width="1"></rect><rect x="49" y="150" width="27" height="62" rx="4" fill="#221E2C" stroke="#2E2939" stroke-width="1"></rect><rect x="78" y="150" width="27" height="62" rx="4" fill="#221E2C" stroke="#2E2939" stroke-width="1"></rect><rect x="107" y="150" width="27" height="62" rx="4" fill="#FFC145"></rect><rect x="136" y="150" width="27" height="62" rx="4" fill="#221E2C" stroke="#2E2939" stroke-width="1"></rect><rect x="165" y="150" width="27" height="62" rx="4" fill="#221E2C" stroke="#2E2939" stroke-width="1"></rect><rect x="194" y="150" width="27" height="62" rx="4" fill="#FFC145"></rect><rect x="39" y="150" width="16" height="36" rx="3" fill="#c5963c"></rect><rect x="68" y="150" width="16" height="36" rx="3" fill="#F3EEF8"></rect><rect x="126" y="150" width="16" height="36" rx="3" fill="#c5963c"></rect><rect x="155" y="150" width="16" height="36" rx="3" fill="#c5963c"></rect><rect x="184" y="150" width="16" height="36" rx="3" fill="#c5963c"></rect><text x="8" y="232" font-size="8.5" fill="#FFC145" font-weight="500">PROPHET</text><text x="57.4" y="232" font-size="11" fill="#C9C2D6" font-weight="400">Pickle Pincher</text></svg>