<svg xmlns="http://www.w3.org/2000/svg" viewBox="0 0 240 240" width="240" height="240"><rect x="0" y="0" width="240" height="240" rx="0" fill="#17141F"></rect><text x="8" y="14" font-size="10" fill="#F3EEF8" font-weight="400">▶</text><text x="20" y="14" font-size="11" fill="#F3EEF8" font-weight="500">124</text><circle cx="54" cy="10" r="2.5" fill="#5A5468"></circle><circle cx="62" cy="10" r="2.5" fill="#F3EEF8"></circle><circle cx="70" cy="10" r="2.5" fill="#5A5468"></circle><circle cx="78" cy="10" r="2.5" fill="#5A5468"></circle><rect x="96" y="8" width="4" height="4" rx="2" fill="#2E2939"></rect><rect x="105" y="8" width="12" height="4" rx="2" fill="#FFC145"></rect><rect x="122" y="8" width="4" height="4" rx="2" fill="#2E2939"></rect><rect x="131" y="8" width="4" height="4" rx="2" fill="#2E2939"></rect><rect x="140" y="8" width="4" height="4" rx="2" fill="#2E2939"></rect><rect x="149" y="8" width="4" height="4" rx="2" fill="#2E2939"></rect><rect x="177.6" y="3" width="54.400000000000006" height="14" rx="4" fill="#FFC145"></rect><text x="204.8" y="13.5" font-size="9" fill="#17141F" text-anchor="middle" font-weight="500">SLICER</text><text x="30" y="35" font-size="8.5" fill="#FFC145" text-anchor="middle" font-weight="500">SLICER</text><circle cx="30" cy="60" r="15" fill="none" stroke="#2E2939" stroke-width="3" stroke-dasharray="70.68583470577033 94.24777960769379" transform="rotate(135 30 60)" stroke-linecap="round"></circle><circle cx="30" cy="60" r="15" fill="none" stroke="#FFC145" stroke-width="3" stroke-dasharray="14.137166941154067 94.24777960769379" transform="rotate(135 30 60)" stroke-linecap="round"></circle><circle cx="15.2" cy="57.7" r="3.2" fill="#F3EEF8" stroke="#17141F" stroke-width="1.5"></circle><text x="30" y="94" font-size="14" fill="#F3EEF8" text-anchor="middle" font-weight="500">Gate<tspan font-size="9" fill="#9A93A8" font-weight="400"></tspan></text><text x="90" y="35" font-size="8.5" fill="#FFC145" text-anchor="middle" font-weight="500">PATTERN</text><circle cx="90" cy="60" r="15" fill="none" stroke="#2E2939" stroke-width="3" stroke-dasharray="70.68583470577033 94.24777960769379" transform="rotate(135 90 60)" stroke-linecap="round"></circle><circle cx="90" cy="60" r="15" fill="none" stroke="#FFC145" stroke-width="3" stroke-dasharray="0 94.24777960769379" transform="rotate(135 90 60)" stroke-linecap="round"></circle><circle cx="79.4" cy="70.6" r="3.2" fill="#F3EEF8" stroke="#17141F" stroke-width="1.5"></circle><text x="90" y="94" font-size="14" fill="#F3EEF8" text-anchor="middle" font-weight="500">1<tspan font-size="9" fill="#9A93A8" font-weight="400"></tspan></text><text x="150" y="35" font-size="8.5" fill="#FFC145" text-anchor="middle" font-weight="500">RATE</text><circle cx="150" cy="60" r="15" fill="none" stroke="#2E2939" stroke-width="3" stroke-dasharray="70.68583470577033 94.24777960769379" transform="rotate(135 150 60)" stroke-linecap="round"></circle><circle cx="150" cy="60" r="15" fill="none" stroke="#FFC145" stroke-width="3" stroke-dasharray="28.274333882308134 94.24777960769379" transform="rotate(135 150 60)" stroke-linecap="round"></circle><circle cx="143.2" cy="46.6" r="3.2" fill="#F3EEF8" stroke="#17141F" stroke-width="1.5"></circle><text x="150" y="94" font-size="14" fill="#F3EEF8" text-anchor="middle" font-weight="500">1/16<tspan font-size="9" fill="#9A93A8" font-weight="400"></tspan></text><rect x="181" y="24" width="58" height="78" rx="8" fill="#262033" stroke="#FFC145" stroke-width="1"></rect><text x="210" y="35" font-size="8.5" fill="#FFC145" text-anchor="middle" font-weight="500">DEPTH</text><circle cx="210" cy="60" r="15" fill="none" stroke="#2E2939" stroke-width="3" stroke-dasharray="70.68583470577033 94.24777960769379" transform="rotate(135 210 60)" stroke-linecap="round"></circle><circle cx="210" cy="60" r="15" fill="none" stroke="#FFC145" stroke-width="3" stroke-dasharray="70.68583470577033 94.24777960769379" transform="rotate(135 210 60)" stroke-linecap="round"></circle><circle cx="220.6" cy="70.6" r="3.2" fill="#F3EEF8" stroke="#262033" stroke-width="1.5"></circle><text x="210" y="94" font-size="14" fill="#F3EEF8" text-anchor="middle" font-weight="500">100<tspan font-size="9" fill="#9A93A8" font-weight="400"> %</tspan></text><rect x="4" y="108" width="232" height="112" rx="6" fill="#1D1926"></rect><rect x="14" y="122" width="10" height="82" rx="3" fill="#FFC145"></rect><rect x="27.5" y="196" width="10" height="8" rx="3" fill="#2E2939"></rect><rect x="41" y="122" width="10" height="82" rx="3" fill="#FFC145"></rect><rect x="54.5" y="122" width="10" height="82" rx="3" fill="#FFC145"></rect><rect x="68" y="122" width="10" height="82" rx="3" fill="#FFC145"></rect><rect x="81.5" y="196" width="10" height="8" rx="3" fill="#2E2939"></rect><rect x="95" y="122" width="10" height="82" rx="3" fill="#FFC145"></rect><rect x="108.5" y="122" width="10" height="82" rx="3" fill="#FFC145"></rect><rect x="122" y="122" width="10" height="82" rx="3" fill="#FFC145"></rect><rect x="135.5" y="196" width="10" height="8" rx="3" fill="#2E2939"></rect><rect x="149" y="122" width="10" height="82" rx="3" fill="#FFC145"></rect><rect x="162.5" y="122" width="10" height="82" rx="3" fill="#FFC145"></rect><rect x="176" y="122" width="10" height="82" rx="3" fill="#FFC145"></rect><rect x="189.5" y="196" width="10" height="8" rx="3" fill="#2E2939"></rect><rect x="203" y="122" width="10" height="82" rx="3" fill="#FFC145"></rect><rect x="216.5" y="196" width="10" height="8" rx="3" fill="#2E2939"></rect><text x="8" y="232" font-size="8.5" fill="#FFC145" font-weight="500">ANALOG</text><text x="51.2" y="232" font-size="11" fill="#C9C2D6" font-weight="400">Acid</text></svg>