<svg xmlns="http://www.w3.org/2000/svg" viewBox="0 0 240 240" width="240" height="240"><rect x="0" y="0" width="240" height="240" rx="0" fill="#17141F"></rect><text x="8" y="15" font-size="11" fill="#F3EEF8">▶</text><text x="20" y="15" font-size="11" fill="#F3EEF8" font-weight="500">124</text><circle cx="54" cy="11" r="2.5" fill="#5A5468"></circle><circle cx="62" cy="11" r="2.5" fill="#F3EEF8"></circle><circle cx="70" cy="11" r="2.5" fill="#5A5468"></circle><circle cx="78" cy="11" r="2.5" fill="#5A5468"></circle><rect x="150" y="4" width="82" height="14" rx="4" fill="#FFC145"></rect><text x="191" y="14.5" font-size="9" fill="#17141F" text-anchor="middle" font-weight="500">PROPHET-5</text><rect x="4" y="22" width="54" height="44" rx="6" fill="#221E2C"></rect><text x="10" y="34" font-size="8.5" fill="#FFC145" font-weight="500">CUTOFF</text><text x="10" y="52" font-size="15" fill="#F3EEF8" font-weight="500">62</text><text x="29.2" y="52" font-size="9" fill="#9A93A8">%</text><rect x="10" y="58" width="42" height="3" rx="1.5" fill="#2E2939"></rect><rect x="10" y="58" width="26.04" height="3" rx="1.5" fill="#FFC145"></rect><rect x="62" y="22" width="54" height="44" rx="6" fill="#221E2C"></rect><text x="68" y="34" font-size="8.5" fill="#FFC145" font-weight="500">RESO</text><text x="68" y="52" font-size="15" fill="#F3EEF8" font-weight="500">30</text><text x="87.2" y="52" font-size="9" fill="#9A93A8">%</text><rect x="68" y="58" width="42" height="3" rx="1.5" fill="#2E2939"></rect><rect x="68" y="58" width="12.6" height="3" rx="1.5" fill="#FFC145"></rect><rect x="120" y="22" width="54" height="44" rx="6" fill="#221E2C"></rect><text x="126" y="34" font-size="8.5" fill="#FFC145" font-weight="500">ENV AMT</text><text x="126" y="52" font-size="15" fill="#F3EEF8" font-weight="500">+41</text><text x="153.8" y="52" font-size="9" fill="#9A93A8"></text><rect x="126" y="58" width="42" height="3" rx="1.5" fill="#2E2939"></rect><rect x="126" y="58" width="29.4" height="3" rx="1.5" fill="#FFC145"></rect><rect x="178" y="22" width="54" height="44" rx="6" fill="#221E2C"></rect><text x="184" y="34" font-size="8.5" fill="#FFC145" font-weight="500">RELEASE</text><text x="184" y="52" font-size="15" fill="#F3EEF8" font-weight="500">0.8</text><text x="211.8" y="52" font-size="9" fill="#9A93A8">s</text><rect x="184" y="58" width="42" height="3" rx="1.5" fill="#2E2939"></rect><rect x="184" y="58" width="14.7" height="3" rx="1.5" fill="#FFC145"></rect><rect x="4" y="70" width="232" height="82" rx="6" fill="#1D1926"></rect><line x1="8" y1="111" x2="232" y2="111" stroke="#2E2939"></line><path d="M8 111 L8 111.0 L9 106.9 L10 103.1 L11 99.6 L12 96.8 L13 94.6 L14 93.2 L15 92.4 L16 92.3 L17 92.6 L18 93.2 L19 94.0 L20 94.8 L21 95.6 L22 96.3 L23 96.9 L24 97.4 L25 97.9 L26 98.5 L27 99.1 L28 99.8 L29 100.7 L30 101.7 L31 102.8 L32 103.9 L33 104.8 L34 105.6 L35 106.2 L36 106.5 L37 106.6 L38 106.5 L39 106.3 L40 106.1 L41 106.1 L42 106.3 L43 106.8 L44 107.7 L45 109.0 L46 110.5 L47 112.2 L48 114.0 L49 115.6 L50 117.0 L51 118.0 L52 118.6 L53 118.7 L54 118.4 L55 117.8 L56 117.1 L57 116.4 L58 115.9 L59 115.7 L60 116.0 L61 116.8 L62 118.0 L63 119.7 L64 121.7 L65 123.8 L66 125.9 L67 127.7 L68 129.3 L69 130.4 L70 131.1 L71 131.2 L72 130.9 L73 130.1 L74 129.0 L75 127.7 L76 126.2 L77 124.5 L78 122.7 L79 120.7 L80 118.5 L81 116.2 L82 113.6 L83 110.8 L84 107.7 L85 104.6 L86 101.4 L87 98.4 L88 95.6 L89 93.3 L90 91.6 L91 90.6 L92 90.3 L93 90.7 L94 91.7 L95 93.2 L96 95.0 L97 96.9 L98 98.8 L99 100.4 L100 101.6 L101 102.4 L102 102.8 L103 102.8 L104 102.5 L105 102.0 L106 101.6 L107 101.3 L108 101.3 L109 101.6 L110 102.3 L111 103.3 L112 104.5 L113 105.8 L114 107.2 L115 108.5 L116 109.6 L117 110.4 L118 111.1 L119 111.5 L120 111.8 L121 112.0 L122 112.3 L123 112.6 L124 113.1 L125 113.7 L126 114.5 L127 115.4 L128 116.3 L129 117.1 L130 117.8 L131 118.3 L132 118.6 L133 118.8 L134 118.8 L135 118.8 L136 118.8 L137 119.1 L138 119.7 L139 120.7 L140 122.1 L141 123.8 L142 125.8 L143 127.9 L144 129.9 L145 131.6 L146 132.8 L147 133.4 L148 133.3 L149 132.3 L150 130.6 L151 128.1 L152 125.1 L153 121.7 L154 118.1 L155 114.5 L156 111.1 L157 108.0 L158 105.3 L159 103.0 L160 101.0 L161 99.4 L162 98.1 L163 97.0 L164 96.1 L165 95.2 L166 94.5 L167 94.0 L168 93.6 L169 93.5 L170 93.8 L171 94.3 L172 95.2 L173 96.4 L174 97.8 L175 99.3 L176 100.8 L177 102.2 L178 103.3 L179 104.0 L180 104.4 L181 104.4 L182 104.1 L183 103.7 L184 103.1 L185 102.7 L186 102.5 L187 102.7 L188 103.3 L189 104.3 L190 105.7 L191 107.5 L192 109.4 L193 111.3 L194 113.1 L195 114.5 L196 115.5 L197 116.1 L198 116.2 L199 116.0 L200 115.4 L201 114.8 L202 114.1 L203 113.7 L204 113.5 L205 113.7 L206 114.3 L207 115.2 L208 116.5 L209 118.0 L210 119.6 L211 121.3 L212 122.8 L213 124.2 L214 125.4 L215 126.4 L216 127.2 L217 128.0 L218 128.6 L219 129.2 L220 129.7 L221 130.1 L222 130.4 L223 130.3 L224 129.9 L225 129.0 L226 127.5 L227 125.4 L228 122.7 L229 119.4 L230 115.8 L231 111.9 L232 107.9 " fill="none" stroke="#6c5431" stroke-width="2" stroke-linejoin="round"></path><text x="14" y="100" font-size="30" fill="#F3EEF8" font-weight="500">A</text><text x="36" y="100" font-size="17" fill="#F3EEF8" font-weight="500">m7</text><text x="14" y="120" font-size="11" fill="#FFC145" font-weight="500">A3  C4  E4  G4</text><rect x="4" y="156" width="232" height="19" rx="5" fill="#1A1722"></rect><rect x="4" y="156" width="3" height="19" fill="#FF7A5C"></rect><text x="13" y="169.5" font-size="10" fill="#FF7A5C" font-weight="500">1</text><text x="25" y="169.5" font-size="10" fill="#C9C2D6">909 Kit</text><rect x="104" y="159.5" width="18" height="12" rx="3" fill="none" stroke="#FF7A5C"></rect><text x="113" y="168.5" font-size="8" fill="#FF7A5C" text-anchor="middle" font-weight="500">P1</text><rect x="128" y="161.5" width="4" height="8" rx="1" fill="#FF7A5C" opacity="0.75"></rect><rect x="133.6" y="161.5" width="4" height="8" rx="1" fill="#2E2939"></rect><rect x="139.2" y="161.5" width="4" height="8" rx="1" fill="#2E2939"></rect><rect x="144.8" y="161.5" width="4" height="8" rx="1" fill="#2E2939"></rect><rect x="150.4" y="161.5" width="4" height="8" rx="1" fill="#FF7A5C" opacity="0.75"></rect><rect x="156" y="161.5" width="4" height="8" rx="1" fill="#F3EEF8"></rect><rect x="161.6" y="161.5" width="4" height="8" rx="1" fill="#2E2939"></rect><rect x="167.2" y="161.5" width="4" height="8" rx="1" fill="#2E2939"></rect><rect x="172.8" y="161.5" width="4" height="8" rx="1" fill="#FF7A5C" opacity="0.75"></rect><rect x="178.4" y="161.5" width="4" height="8" rx="1" fill="#2E2939"></rect><rect x="184" y="161.5" width="4" height="8" rx="1" fill="#2E2939"></rect><rect x="189.6" y="161.5" width="4" height="8" rx="1" fill="#2E2939"></rect><rect x="195.2" y="161.5" width="4" height="8" rx="1" fill="#FF7A5C" opacity="0.75"></rect><rect x="200.8" y="161.5" width="4" height="8" rx="1" fill="#2E2939"></rect><rect x="206.39999999999998" y="161.5" width="4" height="8" rx="1" fill="#FF7A5C" opacity="0.75"></rect><rect x="212" y="161.5" width="4" height="8" rx="1" fill="#2E2939"></rect><rect x="222" y="170" width="10" height="2" rx="1" fill="#2E2939"></rect><rect x="222" y="160" width="3" height="10.8" rx="1" fill="#FF7A5C"></rect><rect x="4" y="177" width="232" height="19" rx="5" fill="#262033" stroke="#FFC145"></rect><rect x="4" y="177" width="3" height="19" fill="#FFC145"></rect><text x="13" y="190.5" font-size="10" fill="#FFC145" font-weight="500">2</text><text x="25" y="190.5" font-size="10" fill="#F3EEF8" font-weight="500">Pickle Pincher</text><rect x="104" y="180.5" width="18" height="12" rx="3" fill="#FFC145"></rect><text x="113" y="189.5" font-size="8" fill="#17141F" text-anchor="middle" font-weight="500">P2</text><rect x="128" y="182.5" width="4" height="8" rx="1" fill="#FFC145" opacity="0.75"></rect><rect x="133.6" y="182.5" width="4" height="8" rx="1" fill="#2E2939"></rect><rect x="139.2" y="182.5" width="4" height="8" rx="1" fill="#2E2939"></rect><rect x="144.8" y="182.5" width="4" height="8" rx="1" fill="#FFC145" opacity="0.75"></rect><rect x="150.4" y="182.5" width="4" height="8" rx="1" fill="#2E2939"></rect><rect x="156" y="182.5" width="4" height="8" rx="1" fill="#F3EEF8"></rect><rect x="161.6" y="182.5" width="4" height="8" rx="1" fill="#FFC145" opacity="0.75"></rect><rect x="167.2" y="182.5" width="4" height="8" rx="1" fill="#2E2939"></rect><rect x="172.8" y="182.5" width="4" height="8" rx="1" fill="#2E2939"></rect><rect x="178.4" y="182.5" width="4" height="8" rx="1" fill="#2E2939"></rect><rect x="184" y="182.5" width="4" height="8" rx="1" fill="#FFC145" opacity="0.75"></rect><rect x="189.6" y="182.5" width="4" height="8" rx="1" fill="#2E2939"></rect><rect x="195.2" y="182.5" width="4" height="8" rx="1" fill="#2E2939"></rect><rect x="200.8" y="182.5" width="4" height="8" rx="1" fill="#FFC145" opacity="0.75"></rect><rect x="206.39999999999998" y="182.5" width="4" height="8" rx="1" fill="#2E2939"></rect><rect x="212" y="182.5" width="4" height="8" rx="1" fill="#2E2939"></rect><rect x="222" y="191" width="10" height="2" rx="1" fill="#2E2939"></rect><rect x="222" y="181" width="3" height="9.7" rx="1" fill="#FFC145"></rect><rect x="4" y="198" width="232" height="19" rx="5" fill="#1A1722"></rect><rect x="4" y="198" width="3" height="19" fill="#46D9B0"></rect><text x="13" y="211.5" font-size="10" fill="#46D9B0" font-weight="500">3</text><text x="25" y="211.5" font-size="10" fill="#C9C2D6">Glass Keys</text><rect x="104" y="201.5" width="18" height="12" rx="3" fill="none" stroke="#46D9B0"></rect><text x="113" y="210.5" font-size="8" fill="#46D9B0" text-anchor="middle" font-weight="500">P1</text><rect x="128" y="203.5" width="4" height="8" rx="1" fill="#46D9B0" opacity="0.75"></rect><rect x="133.6" y="203.5" width="4" height="8" rx="1" fill="#2E2939"></rect><rect x="139.2" y="203.5" width="4" height="8" rx="1" fill="#2E2939"></rect><rect x="144.8" y="203.5" width="4" height="8" rx="1" fill="#2E2939"></rect><rect x="150.4" y="203.5" width="4" height="8" rx="1" fill="#2E2939"></rect><rect x="156" y="203.5" width="4" height="8" rx="1" fill="#F3EEF8"></rect><rect x="161.6" y="203.5" width="4" height="8" rx="1" fill="#2E2939"></rect><rect x="167.2" y="203.5" width="4" height="8" rx="1" fill="#2E2939"></rect><rect x="172.8" y="203.5" width="4" height="8" rx="1" fill="#46D9B0" opacity="0.75"></rect><rect x="178.4" y="203.5" width="4" height="8" rx="1" fill="#2E2939"></rect><rect x="184" y="203.5" width="4" height="8" rx="1" fill="#2E2939"></rect><rect x="189.6" y="203.5" width="4" height="8" rx="1" fill="#2E2939"></rect><rect x="195.2" y="203.5" width="4" height="8" rx="1" fill="#2E2939"></rect><rect x="200.8" y="203.5" width="4" height="8" rx="1" fill="#2E2939"></rect><rect x="206.39999999999998" y="203.5" width="4" height="8" rx="1" fill="#2E2939"></rect><rect x="212" y="203.5" width="4" height="8" rx="1" fill="#2E2939"></rect><rect x="222" y="212" width="10" height="2" rx="1" fill="#2E2939"></rect><rect x="222" y="202" width="3" height="8.05" rx="1" fill="#46D9B0"></rect><rect x="4" y="219" width="232" height="19" rx="5" fill="#1A1722"></rect><rect x="4" y="219" width="3" height="19" fill="#9D8CFF"></rect><text x="13" y="232.5" font-size="10" fill="#9D8CFF" font-weight="500">4</text><text x="25" y="232.5" font-size="10" fill="#C9C2D6">Brass One</text><rect x="104" y="222.5" width="18" height="12" rx="3" fill="none" stroke="#9D8CFF"></rect><text x="113" y="231.5" font-size="8" fill="#9D8CFF" text-anchor="middle" font-weight="500">P4</text><rect x="128" y="224.5" width="4" height="8" rx="1" fill="#2E2939"></rect><rect x="133.6" y="224.5" width="4" height="8" rx="1" fill="#2E2939"></rect><rect x="139.2" y="224.5" width="4" height="8" rx="1" fill="#9D8CFF" opacity="0.75"></rect><rect x="144.8" y="224.5" width="4" height="8" rx="1" fill="#2E2939"></rect><rect x="150.4" y="224.5" width="4" height="8" rx="1" fill="#2E2939"></rect><rect x="156" y="224.5" width="4" height="8" rx="1" fill="#F3EEF8"></rect><rect x="161.6" y="224.5" width="4" height="8" rx="1" fill="#2E2939"></rect><rect x="167.2" y="224.5" width="4" height="8" rx="1" fill="#2E2939"></rect><rect x="172.8" y="224.5" width="4" height="8" rx="1" fill="#2E2939"></rect><rect x="178.4" y="224.5" width="4" height="8" rx="1" fill="#9D8CFF" opacity="0.75"></rect><rect x="184" y="224.5" width="4" height="8" rx="1" fill="#2E2939"></rect><rect x="189.6" y="224.5" width="4" height="8" rx="1" fill="#2E2939"></rect><rect x="195.2" y="224.5" width="4" height="8" rx="1" fill="#2E2939"></rect><rect x="200.8" y="224.5" width="4" height="8" rx="1" fill="#9D8CFF" opacity="0.75"></rect><rect x="206.39999999999998" y="224.5" width="4" height="8" rx="1" fill="#9D8CFF" opacity="0.75"></rect><rect x="212" y="224.5" width="4" height="8" rx="1" fill="#2E2939"></rect><rect x="222" y="233" width="10" height="2" rx="1" fill="#2E2939"></rect><rect x="222" y="223" width="3" height="6.95" rx="1" fill="#9D8CFF"></rect></svg>