<svg xmlns="http://www.w3.org/2000/svg" viewBox="0 0 240 240" width="240" height="240"><rect x="0" y="0" width="240" height="240" rx="0" fill="#17141F"></rect><text x="8" y="15" font-size="11" fill="#F3EEF8">▶</text><text x="20" y="15" font-size="11" fill="#F3EEF8" font-weight="500">124</text><circle cx="54" cy="11" r="2.5" fill="#5A5468"></circle><circle cx="62" cy="11" r="2.5" fill="#F3EEF8"></circle><circle cx="70" cy="11" r="2.5" fill="#5A5468"></circle><circle cx="78" cy="11" r="2.5" fill="#5A5468"></circle><rect x="150" y="4" width="82" height="14" rx="4" fill="#46D9B0"></rect><text x="191" y="14.5" font-size="9" fill="#17141F" text-anchor="middle" font-weight="500">CZ-1</text><rect x="4" y="24" width="54" height="50" rx="6" fill="#221E2C"></rect><text x="10" y="37" font-size="8.5" fill="#46D9B0" font-weight="500">TIMBRE</text><text x="10" y="56" font-size="15" fill="#F3EEF8" font-weight="500">71</text><text x="29.2" y="56" font-size="9" fill="#9A93A8"></text><rect x="10" y="63" width="42" height="3" rx="1.5" fill="#2E2939"></rect><rect x="10" y="63" width="29.82" height="3" rx="1.5" fill="#46D9B0"></rect><rect x="62" y="24" width="54" height="50" rx="6" fill="#221E2C"></rect><text x="68" y="37" font-size="8.5" fill="#46D9B0" font-weight="500">DETUNE</text><text x="68" y="56" font-size="15" fill="#F3EEF8" font-weight="500">+3</text><text x="87.2" y="56" font-size="9" fill="#9A93A8"></text><rect x="68" y="63" width="42" height="3" rx="1.5" fill="#2E2939"></rect><rect x="68" y="63" width="23.1" height="3" rx="1.5" fill="#46D9B0"></rect><rect x="120" y="24" width="54" height="50" rx="6" fill="#221E2C"></rect><text x="126" y="37" font-size="8.5" fill="#46D9B0" font-weight="500">VIBRATO</text><text x="126" y="56" font-size="15" fill="#F3EEF8" font-weight="500">22</text><text x="145.2" y="56" font-size="9" fill="#9A93A8"></text><rect x="126" y="63" width="42" height="3" rx="1.5" fill="#2E2939"></rect><rect x="126" y="63" width="9.24" height="3" rx="1.5" fill="#46D9B0"></rect><rect x="178" y="24" width="54" height="50" rx="6" fill="#221E2C"></rect><text x="184" y="37" font-size="8.5" fill="#46D9B0" font-weight="500">RELEASE</text><text x="184" y="56" font-size="15" fill="#F3EEF8" font-weight="500">45</text><text x="203.2" y="56" font-size="9" fill="#9A93A8"></text><rect x="184" y="63" width="42" height="3" rx="1.5" fill="#2E2939"></rect><rect x="184" y="63" width="18.900000000000002" height="3" rx="1.5" fill="#46D9B0"></rect><rect x="4" y="80" width="232" height="56" rx="6" fill="#1D1926"></rect><path d="M14 110 L14 110.0 L15 107.1 L16 104.2 L17 101.6 L18 99.2 L19 97.3 L20 95.7 L21 94.6 L22 94.1 L23 94.1 L24 94.6 L25 95.6 L26 97.2 L27 99.2 L28 101.5 L29 104.1 L30 107.0 L31 109.9 L32 111.6 L33 113.2 L34 114.7 L35 116.3 L36 117.7 L37 119.1 L38 120.4 L39 121.6 L40 122.6 L41 123.6 L42 124.3 L43 125.0 L44 125.5 L45 125.8 L46 126.0 L47 126.0 L48 125.8 L49 125.5 L50 125.0 L51 124.4 L52 123.6 L53 122.7 L54 121.6 L55 120.4 L56 119.2 L57 117.8 L58 116.3 L59 114.8 L60 113.2 L61 111.6 L62 110.0 L63 107.1 L64 104.2 L65 101.6 L66 99.2 L67 97.3 L68 95.7 L69 94.6 L70 94.1 L71 94.1 L72 94.6 L73 95.6 L74 97.2 L75 99.2 L76 101.5 L77 104.1 L78 107.0 L79 109.9 L80 111.6 L81 113.2 L82 114.7 L83 116.3 L84 117.7 L85 119.1 L86 120.4 L87 121.6 L88 122.6 L89 123.6 L90 124.3 L91 125.0 L92 125.5 L93 125.8 L94 126.0 L95 126.0 L96 125.8 L97 125.5 L98 125.0 L99 124.4 L100 123.6 L101 122.7 L102 121.6 L103 120.4 L104 119.2 L105 117.8 L106 116.3 L107 114.8 L108 113.2 L109 111.6 L110 110.0 L111 107.1 L112 104.2 L113 101.6 L114 99.2 L115 97.3 L116 95.7 L117 94.6 L118 94.1 L119 94.1 L120 94.6 L121 95.6 L122 97.2 L123 99.2 L124 101.5 L125 104.1 L126 107.0 L127 109.9 L128 111.6 L129 113.2 L130 114.7 L131 116.3 L132 117.7 L133 119.1 L134 120.4 L135 121.6 L136 122.6 L137 123.6 L138 124.3 L139 125.0 L140 125.5 L141 125.8 L142 126.0 L143 126.0 L144 125.8 L145 125.5 L146 125.0 L147 124.4 L148 123.6 L149 122.7 L150 121.6 L151 120.4 L152 119.2 L153 117.8 L154 116.3 L155 114.8 L156 113.2 L157 111.6 L158 110.0 L159 107.1 L160 104.2 L161 101.6 L162 99.2 L163 97.3 L164 95.7 L165 94.6 L166 94.1 L167 94.1 L168 94.6 L169 95.6 L170 97.2 L171 99.2 L172 101.5 L173 104.1 L174 107.0 L175 109.9 L176 111.6 L177 113.2 L178 114.7 L179 116.3 L180 117.7 L181 119.1 L182 120.4 L183 121.6 L184 122.6 L185 123.6 L186 124.3 L187 125.0 L188 125.5 L189 125.8 L190 126.0 L191 126.0 L192 125.8 L193 125.5 L194 125.0 L195 124.4 L196 123.6 L197 122.7 L198 121.6 L199 120.4 L200 119.2 L201 117.8 L202 116.3 L203 114.8 L204 113.2 L205 111.6 L206 110.0 " fill="none" stroke="#46D9B0" stroke-width="2"></path><text x="222" y="96" font-size="9" fill="#9A93A8" text-anchor="end" font-weight="500">SAW</text><text x="222" y="108" font-size="9" fill="#5A5468" text-anchor="end">line 1+2</text><rect x="4" y="142" width="232" height="20" rx="5" fill="#1A1722"></rect><rect x="4" y="142" width="3" height="20" fill="#FF7A5C"></rect><text x="13" y="156" font-size="10" fill="#FF7A5C" font-weight="500">1</text><text x="25" y="156" font-size="10" fill="#C9C2D6">909 Kit</text><rect x="104" y="146" width="18" height="12" rx="3" fill="none" stroke="#FF7A5C"></rect><text x="113" y="155" font-size="8" fill="#FF7A5C" text-anchor="middle" font-weight="500">P1</text><rect x="128" y="148" width="4" height="8" rx="1" fill="#FF7A5C" opacity="0.75"></rect><rect x="133.6" y="148" width="4" height="8" rx="1" fill="#2E2939"></rect><rect x="139.2" y="148" width="4" height="8" rx="1" fill="#2E2939"></rect><rect x="144.8" y="148" width="4" height="8" rx="1" fill="#2E2939"></rect><rect x="150.4" y="148" width="4" height="8" rx="1" fill="#FF7A5C" opacity="0.75"></rect><rect x="156" y="148" width="4" height="8" rx="1" fill="#F3EEF8"></rect><rect x="161.6" y="148" width="4" height="8" rx="1" fill="#2E2939"></rect><rect x="167.2" y="148" width="4" height="8" rx="1" fill="#2E2939"></rect><rect x="172.8" y="148" width="4" height="8" rx="1" fill="#FF7A5C" opacity="0.75"></rect><rect x="178.4" y="148" width="4" height="8" rx="1" fill="#2E2939"></rect><rect x="184" y="148" width="4" height="8" rx="1" fill="#2E2939"></rect><rect x="189.6" y="148" width="4" height="8" rx="1" fill="#2E2939"></rect><rect x="195.2" y="148" width="4" height="8" rx="1" fill="#FF7A5C" opacity="0.75"></rect><rect x="200.8" y="148" width="4" height="8" rx="1" fill="#2E2939"></rect><rect x="206.39999999999998" y="148" width="4" height="8" rx="1" fill="#FF7A5C" opacity="0.75"></rect><rect x="212" y="148" width="4" height="8" rx="1" fill="#2E2939"></rect><rect x="222" y="157" width="10" height="2" rx="1" fill="#2E2939"></rect><rect x="222" y="147" width="3" height="11.600000000000001" rx="1" fill="#FF7A5C"></rect><rect x="4" y="165" width="232" height="20" rx="5" fill="#1A1722"></rect><rect x="4" y="165" width="3" height="20" fill="#FFC145"></rect><text x="13" y="179" font-size="10" fill="#FFC145" font-weight="500">2</text><text x="25" y="179" font-size="10" fill="#C9C2D6">Pickle Pincher</text><rect x="104" y="169" width="18" height="12" rx="3" fill="none" stroke="#FFC145"></rect><text x="113" y="178" font-size="8" fill="#FFC145" text-anchor="middle" font-weight="500">P2</text><rect x="128" y="171" width="4" height="8" rx="1" fill="#FFC145" opacity="0.75"></rect><rect x="133.6" y="171" width="4" height="8" rx="1" fill="#2E2939"></rect><rect x="139.2" y="171" width="4" height="8" rx="1" fill="#2E2939"></rect><rect x="144.8" y="171" width="4" height="8" rx="1" fill="#FFC145" opacity="0.75"></rect><rect x="150.4" y="171" width="4" height="8" rx="1" fill="#2E2939"></rect><rect x="156" y="171" width="4" height="8" rx="1" fill="#F3EEF8"></rect><rect x="161.6" y="171" width="4" height="8" rx="1" fill="#FFC145" opacity="0.75"></rect><rect x="167.2" y="171" width="4" height="8" rx="1" fill="#2E2939"></rect><rect x="172.8" y="171" width="4" height="8" rx="1" fill="#2E2939"></rect><rect x="178.4" y="171" width="4" height="8" rx="1" fill="#2E2939"></rect><rect x="184" y="171" width="4" height="8" rx="1" fill="#FFC145" opacity="0.75"></rect><rect x="189.6" y="171" width="4" height="8" rx="1" fill="#2E2939"></rect><rect x="195.2" y="171" width="4" height="8" rx="1" fill="#2E2939"></rect><rect x="200.8" y="171" width="4" height="8" rx="1" fill="#FFC145" opacity="0.75"></rect><rect x="206.39999999999998" y="171" width="4" height="8" rx="1" fill="#2E2939"></rect><rect x="212" y="171" width="4" height="8" rx="1" fill="#2E2939"></rect><rect x="222" y="180" width="10" height="2" rx="1" fill="#2E2939"></rect><rect x="222" y="170" width="3" height="10.399999999999999" rx="1" fill="#FFC145"></rect><rect x="4" y="188" width="232" height="20" rx="5" fill="#262033" stroke="#46D9B0"></rect><rect x="4" y="188" width="3" height="20" fill="#46D9B0"></rect><text x="13" y="202" font-size="10" fill="#46D9B0" font-weight="500">3</text><text x="25" y="202" font-size="10" fill="#F3EEF8" font-weight="500">Glass Keys</text><rect x="104" y="192" width="18" height="12" rx="3" fill="#46D9B0"></rect><text x="113" y="201" font-size="8" fill="#17141F" text-anchor="middle" font-weight="500">P1</text><rect x="128" y="194" width="4" height="8" rx="1" fill="#46D9B0" opacity="0.75"></rect><rect x="133.6" y="194" width="4" height="8" rx="1" fill="#2E2939"></rect><rect x="139.2" y="194" width="4" height="8" rx="1" fill="#2E2939"></rect><rect x="144.8" y="194" width="4" height="8" rx="1" fill="#2E2939"></rect><rect x="150.4" y="194" width="4" height="8" rx="1" fill="#2E2939"></rect><rect x="156" y="194" width="4" height="8" rx="1" fill="#F3EEF8"></rect><rect x="161.6" y="194" width="4" height="8" rx="1" fill="#2E2939"></rect><rect x="167.2" y="194" width="4" height="8" rx="1" fill="#2E2939"></rect><rect x="172.8" y="194" width="4" height="8" rx="1" fill="#46D9B0" opacity="0.75"></rect><rect x="178.4" y="194" width="4" height="8" rx="1" fill="#2E2939"></rect><rect x="184" y="194" width="4" height="8" rx="1" fill="#2E2939"></rect><rect x="189.6" y="194" width="4" height="8" rx="1" fill="#2E2939"></rect><rect x="195.2" y="194" width="4" height="8" rx="1" fill="#2E2939"></rect><rect x="200.8" y="194" width="4" height="8" rx="1" fill="#2E2939"></rect><rect x="206.39999999999998" y="194" width="4" height="8" rx="1" fill="#2E2939"></rect><rect x="212" y="194" width="4" height="8" rx="1" fill="#2E2939"></rect><rect x="222" y="203" width="10" height="2" rx="1" fill="#2E2939"></rect><rect x="222" y="193" width="3" height="8.600000000000001" rx="1" fill="#46D9B0"></rect><rect x="4" y="211" width="232" height="20" rx="5" fill="#1A1722"></rect><rect x="4" y="211" width="3" height="20" fill="#9D8CFF"></rect><text x="13" y="225" font-size="10" fill="#9D8CFF" font-weight="500">4</text><text x="25" y="225" font-size="10" fill="#C9C2D6">Brass One</text><rect x="104" y="215" width="18" height="12" rx="3" fill="none" stroke="#9D8CFF"></rect><text x="113" y="224" font-size="8" fill="#9D8CFF" text-anchor="middle" font-weight="500">P4</text><rect x="128" y="217" width="4" height="8" rx="1" fill="#2E2939"></rect><rect x="133.6" y="217" width="4" height="8" rx="1" fill="#2E2939"></rect><rect x="139.2" y="217" width="4" height="8" rx="1" fill="#9D8CFF" opacity="0.75"></rect><rect x="144.8" y="217" width="4" height="8" rx="1" fill="#2E2939"></rect><rect x="150.4" y="217" width="4" height="8" rx="1" fill="#2E2939"></rect><rect x="156" y="217" width="4" height="8" rx="1" fill="#F3EEF8"></rect><rect x="161.6" y="217" width="4" height="8" rx="1" fill="#2E2939"></rect><rect x="167.2" y="217" width="4" height="8" rx="1" fill="#2E2939"></rect><rect x="172.8" y="217" width="4" height="8" rx="1" fill="#2E2939"></rect><rect x="178.4" y="217" width="4" height="8" rx="1" fill="#9D8CFF" opacity="0.75"></rect><rect x="184" y="217" width="4" height="8" rx="1" fill="#2E2939"></rect><rect x="189.6" y="217" width="4" height="8" rx="1" fill="#2E2939"></rect><rect x="195.2" y="217" width="4" height="8" rx="1" fill="#2E2939"></rect><rect x="200.8" y="217" width="4" height="8" rx="1" fill="#9D8CFF" opacity="0.75"></rect><rect x="206.39999999999998" y="217" width="4" height="8" rx="1" fill="#9D8CFF" opacity="0.75"></rect><rect x="212" y="217" width="4" height="8" rx="1" fill="#2E2939"></rect><rect x="222" y="226" width="10" height="2" rx="1" fill="#2E2939"></rect><rect x="222" y="216" width="3" height="7.4" rx="1" fill="#9D8CFF"></rect></svg>